<svg xmlns="http://www.w3.org/2000/svg" xmlns:xlink="http://www.w3.org/1999/xlink" width="129" height="131" viewBox="0 0 129 131">
  <defs>
    <filter id="Ellipse_12" x="0" y="0" width="129" height="131" filterUnits="userSpaceOnUse">
      <feOffset dy="3" input="SourceAlpha"/>
      <feGaussianBlur stdDeviation="3" result="blur"/>
      <feFlood flood-opacity="0.161"/>
      <feComposite operator="in" in2="blur"/>
      <feComposite in="SourceGraphic"/>
    </filter>
  </defs>
  <g id="Calendar_Card_Icon" data-name="Calendar Card Icon" transform="translate(-381 -1395)">
    <g transform="matrix(1, 0, 0, 1, 381, 1395)" filter="url(#Ellipse_12)">
      <ellipse id="Ellipse_12-2" data-name="Ellipse 12" cx="55.5" cy="56.5" rx="55.5" ry="56.5" transform="translate(9 6)" fill="#6f00ff"/>
    </g>
    <g id="Calendar" transform="translate(394.041 1402.583)">
      <g id="Group_9" data-name="Group 9" transform="translate(20.329 22.035)">
        <path id="Path_362" data-name="Path 362" d="M20.336,332.223v19.333h34.87v2.64H68.478V352.8H56.6V340.054H55.206v10.109H21.729v-17.94Z" transform="translate(-20.335 -289.014)" fill="#fff" stroke="#fff" stroke-width="0.5"/>
        <rect id="Rectangle_35" data-name="Rectangle 35" width="1.717" height="1.393" transform="translate(52.445 15.303)" fill="#fff" stroke="#fff" stroke-width="0.5"/>
        <path id="Path_363" data-name="Path 363" d="M81.481,60.891V41.328h0v-12.9H73.47V22.035H72.077v6.392H29.734V22.035H28.341v6.392H20.329v12.9h0V63.315h1.393V41.328h7.635V39.935H21.723v-1.2H70.957V37.338H21.723V29.82h6.618v3.161h1.393V29.82H72.077v3.161H73.47V29.82h6.618v7.518H76.145v1.393h3.943v1.2H31.378v1.393h48.71V60.422a7.6,7.6,0,0,0-7.156,2.087V56.986h0v-12H29V78.462H53.006V77.069H51.6V67.857h1.4V66.464H51.6V57.109h9.171v8.135h1.393V57.109h9.181v7.77a7.569,7.569,0,0,0-.589,2.553H55.2V71.1h1.393v-2.27H61.3v10.75h8.245V68.825h1.271a7.628,7.628,0,0,0,3.434,5.423V85.824h-2.93v1.393h4.323V84.369h5.487V74.944a7.617,7.617,0,0,0,.355-14.053ZM68.149,78.182H62.69V68.825h5.459ZM50.209,55.593H41V46.381h9.212ZM51.6,46.381h9.171v9.212H51.6Zm10.564,0h9.181v9.212H62.166Zm-22.562,0v9.212H30.393V46.381ZM30.393,77.069V67.857H39.6v9.211Zm0-10.6V57.109H39.6v9.355Zm19.816,10.6H41V67.857h9.212Zm0-10.6H41V57.109h9.212ZM79.733,82.976H75.639v-8.02a7.569,7.569,0,0,0,4.094.382ZM78.367,74.07a6.227,6.227,0,1,1,6.227-6.227A6.234,6.234,0,0,1,78.367,74.07Z" transform="translate(-20.329 -22.035)" fill="#fff" stroke="#fff" stroke-width="0.5"/>
      </g>
      <path id="Path_364" data-name="Path 364" d="M407.023,334.17l-3.037-3.038.985-.985,2.052,2.052,5.167-5.166.985.985Z" transform="translate(-330.214 -262.512)" fill="#fff" stroke="#fff" stroke-width="0.5"/>
    </g>
  </g>
</svg>
