<svg xmlns="http://www.w3.org/2000/svg" xmlns:xlink="http://www.w3.org/1999/xlink" width="129" height="131" viewBox="0 0 129 131">
  <defs>
    <filter id="Ellipse_12" x="0" y="0" width="129" height="131" filterUnits="userSpaceOnUse">
      <feOffset dy="3" input="SourceAlpha"/>
      <feGaussianBlur stdDeviation="3" result="blur"/>
      <feFlood flood-opacity="0.161"/>
      <feComposite operator="in" in2="blur"/>
      <feComposite in="SourceGraphic"/>
    </filter>
  </defs>
  <g id="CMR_Member_Icon" data-name="CMR Member Icon" transform="translate(-381 -1395)">
    <g transform="matrix(1, 0, 0, 1, 381, 1395)" filter="url(#Ellipse_12)">
      <ellipse id="Ellipse_12-2" data-name="Ellipse 12" cx="55.5" cy="56.5" rx="55.5" ry="56.5" transform="translate(9 6)" fill="#6f00ff"/>
    </g>
    <g id="Doctor" transform="translate(400.492 1416.4)">
      <path id="Path_375" data-name="Path 375" d="M65.078,60.234a.616.616,0,1,0-.874-.867,3.144,3.144,0,0,1-4.43,0,.615.615,0,0,0-.849.867A4.368,4.368,0,0,0,65.078,60.234Z" transform="translate(-17.134 -22.772)" fill="#fff" stroke="#fff" stroke-width="0.5"/>
      <path id="Path_376" data-name="Path 376" d="M50.81,41.265V42.5a.615.615,0,1,0,1.23,0v-1.23a.615.615,0,1,0-1.23,0Z" transform="translate(-14.057 -15.641)" fill="#fff" stroke="#fff" stroke-width="0.5"/>
      <path id="Path_377" data-name="Path 377" d="M74.39,42.526V41.3a.615.615,0,1,0-1.23,0v1.23a.615.615,0,1,0,1.23,0Z" transform="translate(-22.656 -15.652)" fill="#fff" stroke="#fff" stroke-width="0.5"/>
      <path id="Path_378" data-name="Path 378" d="M72.917,62.655A18.045,18.045,0,0,0,54.872,47.514H50.485V43.94a15.652,15.652,0,0,0,9.887-12.7h.751a4.362,4.362,0,0,0,3.113-7.383c0-9.807.215-10.594-.615-12.581C65.946,5.765,61.59,0,55.733,0H46.622a17.171,17.171,0,0,0-13.3,6.257,8.121,8.121,0,0,0-7.82,8.109v9.456a4.362,4.362,0,0,0,3.113,7.414h.751a15.559,15.559,0,0,0,9.887,12.717v3.562H34.692A18.057,18.057,0,0,0,16.851,62.655L14.285,78.036a.623.623,0,0,0,1.23.2l2.566-15.381A16.82,16.82,0,0,1,30.866,49.219a5.611,5.611,0,0,0-1.618,3.937v8.158a4.368,4.368,0,1,0,1.23,0V53.125a4.393,4.393,0,0,1,3.87-4.35c3.033,18.266,1.883,11.283,4.922,29.457a.791.791,0,0,0,1.532-.025l1.876-15.024a2.221,2.221,0,0,1,4.405,0l1.846,15.024a.837.837,0,0,0,1.532,0c6.731-40.408,1.169-6.946,4.922-29.463A5.636,5.636,0,0,1,60.5,54.356v5.672a5.617,5.617,0,0,0-5,5.58v6.251a.615.615,0,0,0,.615.615h2.5a.615.615,0,0,0,0-1.23H56.736V65.608a4.387,4.387,0,0,1,8.773,0v5.636H63.62a.615.615,0,0,0,0,1.23h2.5a.615.615,0,0,0,.615-.615V65.633a5.623,5.623,0,0,0-5-5.58V54.38a6.854,6.854,0,0,0-2.221-5.045A16.839,16.839,0,0,1,71.7,62.871L74.27,78.251a.623.623,0,0,0,1.23-.2ZM33,65.633A3.138,3.138,0,1,1,29.863,62.5,3.138,3.138,0,0,1,33,65.633ZM45.871,53l4.251-4.251h4.024L52.78,56.94Zm-3.691,5.07-.751-2.252,3.439-1.975,3.458,1.975-.751,2.252a2.855,2.855,0,0,1-5.414,0Zm-5.2-1.126-1.384-8.195h4.024L43.865,53c-3.415,1.944,5.408-3.095-6.909,3.944Zm19.78-40.728a8.158,8.158,0,0,0,6.072-3.5c.277,1.12.2.966.2,11.019a6.9,6.9,0,0,1-6.288-6.86Zm6.571,12.877A3.465,3.465,0,0,1,60.477,30V24.357a8,8,0,0,0,3.138.615,3.132,3.132,0,0,1-.289,4.116ZM26.731,14.366a6.891,6.891,0,0,1,6.884-6.884.615.615,0,0,0,.48-.228A16,16,0,0,1,46.622,1.23h9.112a7.15,7.15,0,0,1,7.272,7.124,6.9,6.9,0,0,1-6.884,6.651H33.616a.615.615,0,0,0-.615.615v1.23a6.9,6.9,0,0,1-6.269,6.878ZM29.247,30h-.615a3.119,3.119,0,0,1-2.461-5.02,8.09,8.09,0,0,0,3.119-.615Zm1.23-.615V23.7a8.1,8.1,0,0,0,3.753-6.829v-.615H55.506v.615A8.1,8.1,0,0,0,59.258,23.7v5.672a14.39,14.39,0,1,1-28.781,0ZM49.255,44.364v3.507l-4.387,4.387-4.387-4.387v-3.5A15.812,15.812,0,0,0,49.255,44.364ZM41.448,63.03l-1.5,11.911-2.775-16.7,3.15-1.8c.615,1.907.867,3.31,2.516,4.257a3.39,3.39,0,0,0-1.39,2.338ZM49.79,74.941,48.3,63.03a3.39,3.39,0,0,0-1.39-2.338c1.643-.947,1.846-2.313,2.516-4.257l3.15,1.8Z" transform="translate(0 0)" fill="#fff" stroke="#fff" stroke-width="0.5"/>
    </g>
  </g>
</svg>
