<svg xmlns="http://www.w3.org/2000/svg" xmlns:xlink="http://www.w3.org/1999/xlink" zoomAndPan="magnify" preserveAspectRatio="xMidYMid meet" version="1.0" viewBox="86.01 173.34 218.69 30.25"><defs><g/></defs><path fill="#034694" d="M 187.410156 191.5 Z M 187.410156 203.59375 C 187.003906 203.59375 186.617188 203.519531 186.25 203.375 C 185.878906 203.230469 185.550781 203.011719 185.257812 202.71875 L 176.253906 193.683594 C 175.472656 192.898438 174.894531 192.003906 174.523438 190.996094 C 174.15625 189.988281 173.972656 188.933594 173.972656 187.839844 C 173.972656 185.53125 174.722656 183.550781 176.222656 181.890625 C 177.722656 180.234375 179.59375 179.40625 181.832031 179.40625 C 182.90625 179.40625 183.921875 179.617188 184.871094 180.042969 C 185.824219 180.46875 186.667969 181.0625 187.410156 181.824219 C 188.125 181.0625 188.960938 180.46875 189.910156 180.042969 C 190.863281 179.617188 191.875 179.40625 192.953125 179.40625 C 195.191406 179.40625 197.066406 180.234375 198.578125 181.890625 C 200.089844 183.550781 200.847656 185.519531 200.847656 187.804688 C 200.847656 188.902344 200.65625 189.953125 200.273438 190.960938 C 199.894531 191.96875 199.324219 192.867188 198.5625 193.648438 L 189.523438 202.71875 C 189.234375 203.011719 188.910156 203.230469 188.550781 203.375 C 188.191406 203.519531 187.8125 203.59375 187.410156 203.59375 Z M 188.753906 186.460938 C 188.929688 186.460938 189.089844 186.503906 189.222656 186.59375 C 189.355469 186.683594 189.480469 186.796875 189.59375 186.929688 L 191.976562 190.492188 L 198.292969 190.492188 C 198.472656 190.066406 198.605469 189.628906 198.695312 189.183594 C 198.785156 188.734375 198.832031 188.273438 198.832031 187.804688 C 198.832031 186.078125 198.269531 184.585938 197.152344 183.320312 C 196.03125 182.054688 194.632812 181.421875 192.953125 181.421875 C 192.167969 181.421875 191.410156 181.585938 190.683594 181.910156 C 189.957031 182.234375 189.324219 182.6875 188.785156 183.269531 L 187.878906 184.242188 C 187.8125 184.3125 187.746094 184.367188 187.675781 184.410156 C 187.609375 184.457031 187.519531 184.480469 187.410156 184.480469 C 187.296875 184.480469 187.203125 184.457031 187.121094 184.410156 C 187.042969 184.367188 186.972656 184.3125 186.90625 184.242188 L 185.996094 183.269531 C 185.460938 182.6875 184.828125 182.234375 184.097656 181.910156 C 183.371094 181.585938 182.617188 181.421875 181.832031 181.421875 C 180.152344 181.421875 178.757812 182.054688 177.648438 183.320312 C 176.539062 184.585938 175.988281 186.078125 175.988281 187.804688 C 175.988281 188.273438 176.03125 188.734375 176.121094 189.183594 C 176.210938 189.628906 176.34375 190.066406 176.523438 190.492188 L 183.378906 190.492188 C 183.554688 190.492188 183.71875 190.53125 183.863281 190.609375 C 184.011719 190.6875 184.128906 190.792969 184.21875 190.929688 L 185.761719 193.28125 L 187.777344 187.167969 C 187.84375 186.964844 187.96875 186.796875 188.148438 186.664062 C 188.328125 186.527344 188.527344 186.460938 188.753906 186.460938 Z M 189.054688 189.71875 L 187.003906 195.832031 C 186.9375 196.035156 186.816406 196.203125 186.636719 196.335938 C 186.457031 196.472656 186.253906 196.539062 186.03125 196.539062 C 185.851562 196.539062 185.695312 196.492188 185.5625 196.40625 C 185.425781 196.316406 185.316406 196.203125 185.226562 196.070312 L 182.839844 192.507812 L 177.933594 192.507812 L 186.703125 201.277344 C 186.816406 201.386719 186.925781 201.464844 187.039062 201.511719 C 187.152344 201.554688 187.273438 201.578125 187.410156 201.578125 C 187.542969 201.578125 187.667969 201.554688 187.777344 201.511719 C 187.890625 201.464844 188.003906 201.386719 188.113281 201.277344 L 196.847656 192.507812 L 191.441406 192.507812 C 191.261719 192.507812 191.105469 192.460938 190.96875 192.375 C 190.835938 192.285156 190.710938 192.171875 190.601562 192.039062 Z M 189.054688 189.71875 " fill-opacity="1" fill-rule="nonzero"/><g fill="#034694" fill-opacity="1"><g transform="translate(84.209917, 199.499987)"><g><path d="M 28.234375 -11.6875 L 28.234375 -1.203125 C 28.234375 -0.878906 28.421875 -0.71875 28.796875 -0.71875 L 30.6875 -0.71875 L 30.6875 0 L 23.484375 0 L 23.484375 -0.71875 L 24.796875 -0.71875 C 25.171875 -0.71875 25.359375 -0.878906 25.359375 -1.203125 L 25.359375 -12.203125 C 25.359375 -13.554688 25.078125 -14.5625 24.515625 -15.21875 C 23.960938 -15.875 23.203125 -16.203125 22.234375 -16.203125 C 20.898438 -16.203125 19.804688 -15.34375 18.953125 -13.625 C 18.109375 -11.90625 17.6875 -9.429688 17.6875 -6.203125 L 17.6875 -1.28125 C 17.6875 -0.90625 17.867188 -0.71875 18.234375 -0.71875 L 20.125 -0.71875 L 20.125 0 L 12.921875 0 L 12.921875 -0.71875 L 14.234375 -0.71875 C 14.609375 -0.71875 14.796875 -0.878906 14.796875 -1.203125 L 14.796875 -12.203125 C 14.796875 -13.554688 14.515625 -14.5625 13.953125 -15.21875 C 13.398438 -15.875 12.644531 -16.203125 11.6875 -16.203125 C 10.351562 -16.203125 9.257812 -15.34375 8.40625 -13.625 C 7.550781 -11.90625 7.125 -9.429688 7.125 -6.203125 L 7.125 -1.28125 C 7.125 -0.90625 7.3125 -0.71875 7.6875 -0.71875 L 9 -0.71875 L 9 0 L 1.796875 0 L 1.796875 -0.71875 L 3.6875 -0.71875 C 4.050781 -0.71875 4.234375 -0.878906 4.234375 -1.203125 L 4.234375 -16 C 4.234375 -16.375 4.050781 -16.5625 3.6875 -16.5625 L 1.796875 -16.5625 L 1.796875 -17.28125 L 3.765625 -17.28125 C 5.359375 -17.28125 6.476562 -17.359375 7.125 -17.515625 L 7.125 -12.15625 C 8 -15.894531 9.890625 -17.765625 12.796875 -17.765625 C 14.078125 -17.765625 15.191406 -17.296875 16.140625 -16.359375 C 17.085938 -15.421875 17.601562 -14.007812 17.6875 -12.125 C 18.5625 -15.882812 20.453125 -17.765625 23.359375 -17.765625 C 24.691406 -17.765625 25.835938 -17.265625 26.796875 -16.265625 C 27.753906 -15.265625 28.234375 -13.738281 28.234375 -11.6875 Z M 28.234375 -11.6875 "/></g></g></g><g fill="#034694" fill-opacity="1"><g transform="translate(116.286732, 199.499987)"><g><path d="M 9.6875 -17.765625 C 11.519531 -17.765625 12.96875 -17.148438 14.03125 -15.921875 C 15.101562 -14.691406 15.640625 -12.890625 15.640625 -10.515625 C 15.640625 -10.035156 15.613281 -9.503906 15.5625 -8.921875 L 4.640625 -8.921875 L 4.640625 -8.640625 C 4.640625 -6.109375 5.097656 -4.113281 6.015625 -2.65625 C 6.941406 -1.207031 8.128906 -0.484375 9.578125 -0.484375 C 11.035156 -0.484375 12.226562 -0.851562 13.15625 -1.59375 C 14.09375 -2.34375 14.734375 -3.410156 15.078125 -4.796875 L 15.84375 -4.640625 C 15.519531 -3.015625 14.785156 -1.753906 13.640625 -0.859375 C 12.492188 0.0351562 11.175781 0.484375 9.6875 0.484375 C 7.363281 0.484375 5.429688 -0.328125 3.890625 -1.953125 C 2.359375 -3.585938 1.59375 -5.8125 1.59375 -8.625 C 1.59375 -11.4375 2.363281 -13.660156 3.90625 -15.296875 C 5.457031 -16.941406 7.382812 -17.765625 9.6875 -17.765625 Z M 12.875 -11.875 C 12.875 -15.15625 11.648438 -16.796875 9.203125 -16.796875 C 7.972656 -16.796875 6.925781 -16.128906 6.0625 -14.796875 C 5.195312 -13.460938 4.738281 -11.769531 4.6875 -9.71875 L 12.71875 -9.71875 C 12.820312 -10.625 12.875 -11.34375 12.875 -11.875 Z M 12.875 -11.875 "/></g></g></g><g fill="#034694" fill-opacity="1"><g transform="translate(133.924983, 199.499987)"><g><path d="M 13.484375 0.234375 L 13.484375 -3.203125 C 11.984375 -0.742188 10.210938 0.484375 8.171875 0.484375 C 6.140625 0.484375 4.535156 -0.328125 3.359375 -1.953125 C 2.179688 -3.585938 1.59375 -5.800781 1.59375 -8.59375 C 1.59375 -11.394531 2.335938 -13.625 3.828125 -15.28125 C 5.328125 -16.9375 7.210938 -17.765625 9.484375 -17.765625 C 10.953125 -17.765625 12.285156 -17.40625 13.484375 -16.6875 L 13.484375 -24.640625 C 13.484375 -25.015625 13.296875 -25.203125 12.921875 -25.203125 L 11.046875 -25.203125 L 11.046875 -25.921875 L 13 -25.921875 C 14.601562 -25.921875 15.722656 -26 16.359375 -26.15625 L 16.359375 -1.28125 C 16.359375 -0.90625 16.546875 -0.71875 16.921875 -0.71875 L 18.796875 -0.71875 L 18.796875 0 L 16.84375 0 C 15.238281 0 14.117188 0.078125 13.484375 0.234375 Z M 9.578125 -16.5625 C 8.203125 -16.5625 7.035156 -15.875 6.078125 -14.5 C 5.117188 -13.125 4.640625 -11.207031 4.640625 -8.75 C 4.640625 -6.300781 5.03125 -4.40625 5.8125 -3.0625 C 6.601562 -1.71875 7.597656 -1.046875 8.796875 -1.046875 C 10.535156 -1.046875 12.097656 -2.257812 13.484375 -4.6875 L 13.484375 -15.4375 C 12.253906 -16.1875 10.953125 -16.5625 9.578125 -16.5625 Z M 9.578125 -16.5625 "/></g></g></g><g fill="#034694" fill-opacity="1"><g transform="translate(153.944424, 199.039135)"><g><path d="M 17.96875 -1.6875 C 17.164062 -1.019531 16.207031 -0.5 15.09375 -0.125 C 13.988281 0.25 12.863281 0.4375 11.71875 0.4375 C 9.789062 0.4375 8.085938 0.0507812 6.609375 -0.71875 C 5.128906 -1.5 3.976562 -2.597656 3.15625 -4.015625 C 2.34375 -5.441406 1.9375 -7.09375 1.9375 -8.96875 C 1.9375 -10.800781 2.367188 -12.425781 3.234375 -13.84375 C 4.097656 -15.269531 5.242188 -16.367188 6.671875 -17.140625 C 8.109375 -17.921875 9.660156 -18.3125 11.328125 -18.3125 C 14.054688 -18.3125 16.3125 -17.566406 18.09375 -16.078125 L 16.078125 -13.4375 C 15.503906 -13.875 14.84375 -14.242188 14.09375 -14.546875 C 13.34375 -14.847656 12.535156 -15 11.671875 -15 C 10.609375 -15 9.640625 -14.734375 8.765625 -14.203125 C 7.890625 -13.671875 7.203125 -12.941406 6.703125 -12.015625 C 6.203125 -11.097656 5.953125 -10.082031 5.953125 -8.96875 C 5.953125 -7.84375 6.21875 -6.820312 6.75 -5.90625 C 7.28125 -4.988281 8.003906 -4.253906 8.921875 -3.703125 C 9.835938 -3.160156 10.882812 -2.890625 12.0625 -2.890625 C 13.53125 -2.890625 14.8125 -3.320312 15.90625 -4.1875 Z M 17.96875 -1.6875 "/></g></g></g><g fill="#034694" fill-opacity="1"><g transform="translate(173.592531, 199.039135)"><g/></g></g><g fill="#034694" fill-opacity="1"><g transform="translate(187.211167, 199.039135)"><g/></g></g><g fill="#034694" fill-opacity="1"><g transform="translate(200.829656, 199.039135)"><g><path d="M 14.5625 -18.53125 C 16.226562 -18.53125 17.609375 -18.035156 18.703125 -17.046875 C 19.796875 -16.054688 20.359375 -14.769531 20.390625 -13.1875 L 20.390625 0 L 16.328125 0 L 16.328125 -11.8125 C 16.273438 -12.8125 15.972656 -13.597656 15.421875 -14.171875 C 14.878906 -14.753906 14.0625 -15.054688 12.96875 -15.078125 C 11.382812 -15.078125 10.078125 -14.445312 9.046875 -13.1875 C 8.015625 -11.925781 7.5 -10.316406 7.5 -8.359375 L 7.5 0 L 3.484375 0 L 3.484375 -17.84375 L 7.109375 -17.84375 L 7.375 -14.390625 C 8 -15.679688 8.941406 -16.691406 10.203125 -17.421875 C 11.472656 -18.160156 12.925781 -18.53125 14.5625 -18.53125 Z M 14.5625 -18.53125 "/></g></g></g><g fill="#034694" fill-opacity="1"><g transform="translate(224.662275, 199.039135)"><g><path d="M 14.5625 -18.53125 C 16.226562 -18.53125 17.609375 -18.035156 18.703125 -17.046875 C 19.796875 -16.054688 20.359375 -14.769531 20.390625 -13.1875 L 20.390625 0 L 16.328125 0 L 16.328125 -11.8125 C 16.273438 -12.8125 15.972656 -13.597656 15.421875 -14.171875 C 14.878906 -14.753906 14.0625 -15.054688 12.96875 -15.078125 C 11.382812 -15.078125 10.078125 -14.445312 9.046875 -13.1875 C 8.015625 -11.925781 7.5 -10.316406 7.5 -8.359375 L 7.5 0 L 3.484375 0 L 3.484375 -17.84375 L 7.109375 -17.84375 L 7.375 -14.390625 C 8 -15.679688 8.941406 -16.691406 10.203125 -17.421875 C 11.472656 -18.160156 12.925781 -18.53125 14.5625 -18.53125 Z M 14.5625 -18.53125 "/></g></g></g><g fill="#034694" fill-opacity="1"><g transform="translate(248.494895, 199.039135)"><g><path d="M 11.84375 -3.015625 C 13.34375 -3.015625 14.796875 -3.53125 16.203125 -4.5625 L 18.0625 -1.59375 C 17.113281 -0.957031 16.082031 -0.457031 14.96875 -0.09375 C 13.863281 0.257812 12.796875 0.4375 11.765625 0.4375 C 9.785156 0.4375 8.054688 0.0234375 6.578125 -0.796875 C 5.097656 -1.617188 3.953125 -2.742188 3.140625 -4.171875 C 2.335938 -5.609375 1.9375 -7.234375 1.9375 -9.046875 C 1.9375 -10.796875 2.375 -12.394531 3.25 -13.84375 C 4.125 -15.300781 5.320312 -16.453125 6.84375 -17.296875 C 8.375 -18.148438 10.039062 -18.578125 11.84375 -18.578125 C 14.175781 -18.578125 16.125 -17.894531 17.6875 -16.53125 C 19.25 -15.164062 20.320312 -13.257812 20.90625 -10.8125 L 6.765625 -5.859375 C 7.285156 -4.972656 7.984375 -4.273438 8.859375 -3.765625 C 9.734375 -3.265625 10.726562 -3.015625 11.84375 -3.015625 Z M 11.546875 -15.390625 C 9.910156 -15.390625 8.5625 -14.8125 7.5 -13.65625 C 6.4375 -12.507812 5.90625 -11.046875 5.90625 -9.265625 C 5.90625 -8.835938 5.921875 -8.507812 5.953125 -8.28125 L 16.328125 -12.109375 C 15.898438 -13.085938 15.289062 -13.878906 14.5 -14.484375 C 13.707031 -15.085938 12.722656 -15.390625 11.546875 -15.390625 Z M 11.546875 -15.390625 "/></g></g></g><g fill="#034694" fill-opacity="1"><g transform="translate(270.905314, 199.039135)"><g><path d="M 17.96875 -1.6875 C 17.164062 -1.019531 16.207031 -0.5 15.09375 -0.125 C 13.988281 0.25 12.863281 0.4375 11.71875 0.4375 C 9.789062 0.4375 8.085938 0.0507812 6.609375 -0.71875 C 5.128906 -1.5 3.976562 -2.597656 3.15625 -4.015625 C 2.34375 -5.441406 1.9375 -7.09375 1.9375 -8.96875 C 1.9375 -10.800781 2.367188 -12.425781 3.234375 -13.84375 C 4.097656 -15.269531 5.242188 -16.367188 6.671875 -17.140625 C 8.109375 -17.921875 9.660156 -18.3125 11.328125 -18.3125 C 14.054688 -18.3125 16.3125 -17.566406 18.09375 -16.078125 L 16.078125 -13.4375 C 15.503906 -13.875 14.84375 -14.242188 14.09375 -14.546875 C 13.34375 -14.847656 12.535156 -15 11.671875 -15 C 10.609375 -15 9.640625 -14.734375 8.765625 -14.203125 C 7.890625 -13.671875 7.203125 -12.941406 6.703125 -12.015625 C 6.203125 -11.097656 5.953125 -10.082031 5.953125 -8.96875 C 5.953125 -7.84375 6.21875 -6.820312 6.75 -5.90625 C 7.28125 -4.988281 8.003906 -4.253906 8.921875 -3.703125 C 9.835938 -3.160156 10.882812 -2.890625 12.0625 -2.890625 C 13.53125 -2.890625 14.8125 -3.320312 15.90625 -4.1875 Z M 17.96875 -1.6875 "/></g></g></g><g fill="#034694" fill-opacity="1"><g transform="translate(290.557527, 199.039135)"><g><path d="M 9.265625 -25.6875 L 9.265625 -17.796875 L 14.140625 -17.796875 L 14.140625 -14.609375 L 9.265625 -14.609375 L 9.265625 0 L 5.21875 0 L 5.21875 -14.609375 L 1.9375 -14.609375 L 1.9375 -17.796875 L 5.21875 -17.796875 L 5.21875 -25.6875 Z M 9.265625 -25.6875 "/></g></g></g></svg>