<svg xmlns="http://www.w3.org/2000/svg" xmlns:xlink="http://www.w3.org/1999/xlink" zoomAndPan="magnify" preserveAspectRatio="xMidYMid meet" version="1.0" viewBox="4.64 9.36 11.81 1.63"><path fill="#034694" d="M 10.121094 10.339844 Z M 10.121094 10.992188 C 10.097656 10.992188 10.078125 10.988281 10.058594 10.980469 C 10.039062 10.972656 10.019531 10.960938 10.003906 10.945312 L 9.519531 10.457031 C 9.476562 10.417969 9.445312 10.367188 9.425781 10.3125 C 9.40625 10.257812 9.394531 10.203125 9.394531 10.144531 C 9.394531 10.019531 9.433594 9.910156 9.515625 9.820312 C 9.597656 9.734375 9.699219 9.6875 9.820312 9.6875 C 9.875 9.6875 9.933594 9.699219 9.984375 9.722656 C 10.035156 9.746094 10.078125 9.777344 10.121094 9.820312 C 10.160156 9.777344 10.203125 9.746094 10.253906 9.722656 C 10.304688 9.699219 10.359375 9.6875 10.417969 9.6875 C 10.539062 9.6875 10.640625 9.734375 10.722656 9.820312 C 10.804688 9.910156 10.847656 10.019531 10.847656 10.140625 C 10.847656 10.199219 10.835938 10.257812 10.816406 10.3125 C 10.792969 10.367188 10.761719 10.414062 10.722656 10.457031 L 10.234375 10.945312 C 10.21875 10.960938 10.199219 10.972656 10.183594 10.980469 C 10.164062 10.988281 10.140625 10.992188 10.121094 10.992188 Z M 10.191406 10.070312 C 10.203125 10.070312 10.210938 10.070312 10.21875 10.074219 C 10.226562 10.082031 10.230469 10.085938 10.238281 10.09375 L 10.367188 10.285156 L 10.707031 10.285156 C 10.71875 10.261719 10.726562 10.238281 10.730469 10.214844 C 10.734375 10.191406 10.738281 10.167969 10.738281 10.140625 C 10.738281 10.046875 10.707031 9.96875 10.644531 9.898438 C 10.585938 9.832031 10.511719 9.796875 10.417969 9.796875 C 10.378906 9.796875 10.335938 9.804688 10.296875 9.824219 C 10.257812 9.839844 10.222656 9.863281 10.195312 9.898438 L 10.144531 9.949219 C 10.140625 9.953125 10.136719 9.957031 10.132812 9.957031 C 10.132812 9.960938 10.125 9.960938 10.121094 9.960938 C 10.113281 9.960938 10.109375 9.960938 10.105469 9.957031 C 10.101562 9.957031 10.097656 9.953125 10.09375 9.949219 L 10.042969 9.898438 C 10.015625 9.863281 9.980469 9.839844 9.941406 9.824219 C 9.902344 9.804688 9.863281 9.796875 9.820312 9.796875 C 9.726562 9.796875 9.652344 9.832031 9.59375 9.898438 C 9.53125 9.96875 9.503906 10.046875 9.503906 10.140625 C 9.503906 10.167969 9.503906 10.191406 9.511719 10.214844 C 9.515625 10.238281 9.523438 10.261719 9.53125 10.285156 L 9.902344 10.285156 C 9.910156 10.285156 9.921875 10.289062 9.929688 10.292969 C 9.9375 10.296875 9.941406 10.304688 9.949219 10.308594 L 10.03125 10.4375 L 10.140625 10.105469 C 10.144531 10.097656 10.148438 10.085938 10.160156 10.078125 C 10.167969 10.074219 10.179688 10.070312 10.191406 10.070312 Z M 10.207031 10.246094 L 10.097656 10.574219 C 10.09375 10.585938 10.089844 10.59375 10.078125 10.601562 C 10.070312 10.609375 10.058594 10.613281 10.046875 10.613281 C 10.035156 10.613281 10.027344 10.609375 10.019531 10.605469 C 10.011719 10.601562 10.007812 10.59375 10.003906 10.585938 L 9.875 10.394531 L 9.609375 10.394531 L 10.082031 10.867188 C 10.089844 10.875 10.09375 10.878906 10.101562 10.882812 C 10.105469 10.882812 10.113281 10.886719 10.121094 10.886719 C 10.128906 10.886719 10.132812 10.882812 10.140625 10.882812 C 10.144531 10.878906 10.152344 10.875 10.15625 10.867188 L 10.628906 10.394531 L 10.335938 10.394531 C 10.328125 10.394531 10.320312 10.394531 10.3125 10.386719 C 10.304688 10.382812 10.296875 10.378906 10.292969 10.371094 Z M 10.207031 10.246094 " fill-opacity="1" fill-rule="nonzero"/><path fill="#034694" d="M 6.070312 10.140625 L 6.070312 10.707031 C 6.070312 10.726562 6.082031 10.734375 6.101562 10.734375 L 6.203125 10.734375 L 6.203125 10.773438 L 5.816406 10.773438 L 5.816406 10.734375 L 5.886719 10.734375 C 5.90625 10.734375 5.917969 10.726562 5.917969 10.707031 L 5.917969 10.113281 C 5.917969 10.042969 5.902344 9.988281 5.871094 9.953125 C 5.839844 9.914062 5.800781 9.898438 5.746094 9.898438 C 5.675781 9.898438 5.617188 9.945312 5.570312 10.039062 C 5.523438 10.128906 5.503906 10.265625 5.503906 10.4375 L 5.503906 10.703125 C 5.503906 10.722656 5.511719 10.734375 5.53125 10.734375 L 5.632812 10.734375 L 5.632812 10.773438 L 5.246094 10.773438 L 5.246094 10.734375 L 5.316406 10.734375 C 5.335938 10.734375 5.347656 10.726562 5.347656 10.707031 L 5.347656 10.113281 C 5.347656 10.042969 5.332031 9.988281 5.300781 9.953125 C 5.269531 9.914062 5.230469 9.898438 5.179688 9.898438 C 5.105469 9.898438 5.046875 9.945312 5 10.039062 C 4.957031 10.128906 4.933594 10.265625 4.933594 10.4375 L 4.933594 10.703125 C 4.933594 10.722656 4.941406 10.734375 4.960938 10.734375 L 5.035156 10.734375 L 5.035156 10.773438 L 4.644531 10.773438 L 4.644531 10.734375 L 4.746094 10.734375 C 4.765625 10.734375 4.777344 10.726562 4.777344 10.707031 L 4.777344 9.910156 C 4.777344 9.890625 4.765625 9.878906 4.746094 9.878906 L 4.644531 9.878906 L 4.644531 9.839844 L 4.75 9.839844 C 4.835938 9.839844 4.898438 9.835938 4.933594 9.828125 L 4.933594 10.117188 C 4.980469 9.914062 5.082031 9.8125 5.238281 9.8125 C 5.308594 9.8125 5.367188 9.839844 5.417969 9.890625 C 5.46875 9.941406 5.496094 10.015625 5.503906 10.117188 C 5.550781 9.914062 5.652344 9.8125 5.808594 9.8125 C 5.878906 9.8125 5.941406 9.839844 5.996094 9.894531 C 6.046875 9.949219 6.070312 10.03125 6.070312 10.140625 Z M 6.070312 10.140625 " fill-opacity="1" fill-rule="nonzero"/><path fill="#034694" d="M 6.800781 9.8125 C 6.902344 9.8125 6.980469 9.847656 7.039062 9.914062 C 7.09375 9.980469 7.125 10.078125 7.125 10.207031 C 7.125 10.230469 7.121094 10.261719 7.121094 10.292969 L 6.53125 10.292969 L 6.53125 10.304688 C 6.53125 10.441406 6.554688 10.550781 6.605469 10.628906 C 6.65625 10.707031 6.71875 10.746094 6.796875 10.746094 C 6.875 10.746094 6.941406 10.726562 6.988281 10.6875 C 7.039062 10.644531 7.074219 10.589844 7.09375 10.515625 L 7.136719 10.523438 C 7.117188 10.609375 7.078125 10.679688 7.015625 10.726562 C 6.953125 10.773438 6.882812 10.800781 6.800781 10.800781 C 6.675781 10.800781 6.574219 10.753906 6.488281 10.667969 C 6.40625 10.578125 6.367188 10.460938 6.367188 10.308594 C 6.367188 10.15625 6.40625 10.035156 6.492188 9.945312 C 6.574219 9.859375 6.679688 9.8125 6.800781 9.8125 Z M 6.976562 10.132812 C 6.976562 9.953125 6.910156 9.867188 6.777344 9.867188 C 6.710938 9.867188 6.652344 9.902344 6.605469 9.972656 C 6.558594 10.046875 6.535156 10.136719 6.53125 10.25 L 6.964844 10.25 C 6.972656 10.199219 6.976562 10.160156 6.976562 10.132812 Z M 6.976562 10.132812 " fill-opacity="1" fill-rule="nonzero"/><path fill="#034694" d="M 7.960938 10.785156 L 7.960938 10.601562 C 7.878906 10.734375 7.785156 10.800781 7.671875 10.800781 C 7.5625 10.800781 7.476562 10.753906 7.414062 10.667969 C 7.351562 10.578125 7.316406 10.460938 7.316406 10.308594 C 7.316406 10.15625 7.359375 10.039062 7.4375 9.949219 C 7.519531 9.859375 7.621094 9.8125 7.742188 9.8125 C 7.824219 9.8125 7.894531 9.832031 7.960938 9.871094 L 7.960938 9.441406 C 7.960938 9.421875 7.949219 9.410156 7.929688 9.410156 L 7.828125 9.410156 L 7.828125 9.375 L 7.933594 9.375 C 8.019531 9.375 8.082031 9.367188 8.117188 9.359375 L 8.117188 10.703125 C 8.117188 10.722656 8.125 10.734375 8.144531 10.734375 L 8.246094 10.734375 L 8.246094 10.773438 L 8.140625 10.773438 C 8.054688 10.773438 7.996094 10.777344 7.960938 10.785156 Z M 7.75 9.878906 C 7.675781 9.878906 7.613281 9.914062 7.558594 9.988281 C 7.507812 10.0625 7.484375 10.167969 7.484375 10.300781 C 7.484375 10.433594 7.503906 10.535156 7.546875 10.609375 C 7.589844 10.679688 7.640625 10.714844 7.707031 10.714844 C 7.800781 10.714844 7.886719 10.652344 7.960938 10.519531 L 7.960938 9.9375 C 7.894531 9.898438 7.824219 9.878906 7.75 9.878906 Z M 7.75 9.878906 " fill-opacity="1" fill-rule="nonzero"/><path fill="#034694" d="M 9.285156 10.65625 C 9.238281 10.691406 9.1875 10.722656 9.128906 10.742188 C 9.066406 10.761719 9.007812 10.773438 8.945312 10.773438 C 8.839844 10.773438 8.75 10.75 8.667969 10.710938 C 8.589844 10.667969 8.527344 10.609375 8.484375 10.53125 C 8.441406 10.453125 8.417969 10.363281 8.417969 10.265625 C 8.417969 10.164062 8.441406 10.078125 8.488281 10 C 8.535156 9.921875 8.597656 9.863281 8.671875 9.824219 C 8.75 9.78125 8.835938 9.757812 8.925781 9.757812 C 9.070312 9.757812 9.195312 9.800781 9.289062 9.878906 L 9.179688 10.023438 C 9.148438 10 9.113281 9.980469 9.074219 9.960938 C 9.035156 9.945312 8.988281 9.9375 8.941406 9.9375 C 8.886719 9.9375 8.832031 9.953125 8.785156 9.980469 C 8.738281 10.011719 8.703125 10.050781 8.675781 10.097656 C 8.648438 10.148438 8.632812 10.203125 8.632812 10.265625 C 8.632812 10.324219 8.648438 10.378906 8.675781 10.429688 C 8.707031 10.480469 8.746094 10.519531 8.792969 10.546875 C 8.84375 10.578125 8.902344 10.59375 8.964844 10.59375 C 9.042969 10.59375 9.113281 10.570312 9.171875 10.523438 Z M 9.285156 10.65625 " fill-opacity="1" fill-rule="nonzero"/><path fill="#034694" d="M 11.632812 9.746094 C 11.722656 9.746094 11.796875 9.773438 11.855469 9.828125 C 11.914062 9.882812 11.945312 9.949219 11.945312 10.035156 L 11.945312 10.75 L 11.726562 10.75 L 11.726562 10.109375 C 11.722656 10.054688 11.707031 10.015625 11.675781 9.984375 C 11.648438 9.953125 11.605469 9.933594 11.546875 9.933594 C 11.460938 9.933594 11.390625 9.96875 11.332031 10.035156 C 11.277344 10.105469 11.25 10.191406 11.25 10.296875 L 11.25 10.75 L 11.03125 10.75 L 11.03125 9.785156 L 11.230469 9.785156 L 11.242188 9.972656 C 11.277344 9.902344 11.328125 9.847656 11.394531 9.808594 C 11.464844 9.765625 11.542969 9.746094 11.632812 9.746094 Z M 11.632812 9.746094 " fill-opacity="1" fill-rule="nonzero"/><path fill="#034694" d="M 12.917969 9.746094 C 13.007812 9.746094 13.082031 9.773438 13.140625 9.828125 C 13.199219 9.882812 13.230469 9.949219 13.234375 10.035156 L 13.234375 10.75 L 13.011719 10.75 L 13.011719 10.109375 C 13.011719 10.054688 12.996094 10.015625 12.964844 9.984375 C 12.933594 9.953125 12.890625 9.933594 12.832031 9.933594 C 12.746094 9.933594 12.675781 9.96875 12.621094 10.035156 C 12.566406 10.105469 12.535156 10.191406 12.535156 10.296875 L 12.535156 10.75 L 12.320312 10.75 L 12.320312 9.785156 L 12.515625 9.785156 L 12.53125 9.972656 C 12.5625 9.902344 12.613281 9.847656 12.683594 9.808594 C 12.75 9.765625 12.828125 9.746094 12.917969 9.746094 Z M 12.917969 9.746094 " fill-opacity="1" fill-rule="nonzero"/><path fill="#034694" d="M 14.058594 10.585938 C 14.140625 10.585938 14.21875 10.558594 14.292969 10.5 L 14.394531 10.660156 C 14.34375 10.695312 14.289062 10.722656 14.226562 10.742188 C 14.167969 10.761719 14.109375 10.773438 14.054688 10.773438 C 13.945312 10.773438 13.855469 10.75 13.773438 10.707031 C 13.695312 10.660156 13.632812 10.601562 13.589844 10.523438 C 13.542969 10.445312 13.523438 10.359375 13.523438 10.257812 C 13.523438 10.164062 13.546875 10.078125 13.59375 10 C 13.640625 9.921875 13.707031 9.859375 13.789062 9.8125 C 13.871094 9.769531 13.960938 9.746094 14.058594 9.746094 C 14.183594 9.746094 14.289062 9.78125 14.375 9.855469 C 14.457031 9.929688 14.515625 10.03125 14.546875 10.164062 L 13.785156 10.433594 C 13.8125 10.480469 13.851562 10.515625 13.898438 10.542969 C 13.945312 10.570312 13.996094 10.585938 14.058594 10.585938 Z M 14.042969 9.917969 C 13.953125 9.917969 13.882812 9.949219 13.824219 10.011719 C 13.765625 10.074219 13.738281 10.152344 13.738281 10.246094 C 13.738281 10.269531 13.738281 10.289062 13.738281 10.300781 L 14.300781 10.09375 C 14.277344 10.042969 14.246094 10 14.203125 9.964844 C 14.160156 9.933594 14.105469 9.917969 14.042969 9.917969 Z M 14.042969 9.917969 " fill-opacity="1" fill-rule="nonzero"/><path fill="#034694" d="M 15.597656 10.65625 C 15.554688 10.691406 15.503906 10.722656 15.445312 10.742188 C 15.382812 10.761719 15.324219 10.773438 15.261719 10.773438 C 15.15625 10.773438 15.066406 10.75 14.984375 10.710938 C 14.90625 10.667969 14.84375 10.609375 14.800781 10.53125 C 14.753906 10.453125 14.734375 10.363281 14.734375 10.265625 C 14.734375 10.164062 14.757812 10.078125 14.804688 10 C 14.851562 9.921875 14.910156 9.863281 14.988281 9.824219 C 15.066406 9.78125 15.152344 9.757812 15.242188 9.757812 C 15.386719 9.757812 15.507812 9.800781 15.605469 9.878906 L 15.496094 10.023438 C 15.464844 10 15.429688 9.980469 15.390625 9.960938 C 15.347656 9.945312 15.304688 9.9375 15.257812 9.9375 C 15.203125 9.9375 15.148438 9.953125 15.101562 9.980469 C 15.054688 10.011719 15.019531 10.050781 14.992188 10.097656 C 14.964844 10.148438 14.949219 10.203125 14.949219 10.265625 C 14.949219 10.324219 14.964844 10.378906 14.992188 10.429688 C 15.023438 10.480469 15.0625 10.519531 15.109375 10.546875 C 15.160156 10.578125 15.214844 10.59375 15.28125 10.59375 C 15.359375 10.59375 15.429688 10.570312 15.488281 10.523438 Z M 15.597656 10.65625 " fill-opacity="1" fill-rule="nonzero"/><path fill="#034694" d="M 16.191406 9.359375 L 16.191406 9.789062 L 16.453125 9.789062 L 16.453125 9.960938 L 16.191406 9.960938 L 16.191406 10.75 L 15.972656 10.75 L 15.972656 9.960938 L 15.792969 9.960938 L 15.792969 9.789062 L 15.972656 9.789062 L 15.972656 9.359375 Z M 16.191406 9.359375 " fill-opacity="1" fill-rule="nonzero"/></svg>